<svg id="Layer_1" data-name="Layer 1" xmlns="http://www.w3.org/2000/svg" viewBox="0 0 450.08 300.05"><defs><style>.cls-1{fill:#2b2a2f;}.cls-2{fill:#3c3b42;}</style></defs><rect class="cls-1" x="300.05" y="15" width="106.95" height="270.05"/><rect class="cls-1" x="22.5" y="82.52" width="232.54" height="142.53"/><rect class="cls-2" x="315.06" y="37.51" width="75.01" height="15"/><path class="cls-2" d="M31.46,255.52H144V278H114v15h75V278H159v-22.5H279a7.5,7.5,0,0,0,7.5-7.5V90.49A7.5,7.5,0,0,0,279,83H31.46A7.5,7.5,0,0,0,24,90.49V248A7.5,7.5,0,0,0,31.46,255.52ZM39,98H271.51V240.51H39Z" transform="translate(-16.46 -15.47)"/><path class="cls-2" d="M384,143a22.5,22.5,0,1,0,22.5,22.5A22.53,22.53,0,0,0,384,143Zm0,30a7.5,7.5,0,1,1,7.5-7.5A7.51,7.51,0,0,1,384,173Z" transform="translate(-16.46 -15.47)"/><path class="cls-2" d="M108.67,115.19l-45,45a7.5,7.5,0,1,0,10.6,10.6l45-45a7.5,7.5,0,0,0-10.61-10.61Z" transform="translate(-16.46 -15.47)"/><path class="cls-2" d="M436.54,300.52V23a7.5,7.5,0,0,0-7.51-7.5H309a7.5,7.5,0,0,0-7.5,7.5V300.52h-285v15H466.54v-15Zm-15,0h-105v-270h105Z" transform="translate(-16.46 -15.47)"/></svg>