<svg id="Layer_1" data-name="Layer 1" xmlns="http://www.w3.org/2000/svg" viewBox="0 0 391.25 438.84"><defs><style>.cls-1{fill:#303033;}.cls-2{fill:#3c3b42;}.cls-3{fill:#2b2a2f;}</style></defs><path class="cls-1" d="M379.4,329.77S177.65,213.44,176.69,213s-4.58-3.71-4.68-10-.24-166.94-.11-172c-.05-9.77,9.21-19,17.33-14.8,7.08,3.56,183.34,100.34,184.27,100.92,4.66,2.92,6.82,4.09,6.67,11.53C380,137.09,379.4,329.77,379.4,329.77Z" transform="translate(-4.64 -7.7)"/><polygon class="cls-2" points="183.98 30.27 183.98 195.68 359.21 296.33 359.21 126.27 183.98 30.27"/><path class="cls-3" d="M180.44,16.36s17-7.56,17.7-7.88a6.27,6.27,0,0,1,6,0c2.88,1.59,183,101.06,186.09,102.68s5.23,3.19,5.23,7.74.39,207.87.39,208.45,1.35,8.62-10.45,15S210.72,443.1,209.56,443.87c-2.21,1.14-9.87,5.9-20.91-1S9.76,335.52,7.59,333.58,5,330,4.91,327.26,3.67,309.79,7,307.66s159.34-96.24,162.53-96.14a15.25,15.25,0,0,1,9.78,3c4.16,2.8,200.13,115.25,200.13,115.25s.68-200.93.62-202.2,1.11-6.27-9.62-12.15S190.32,16.83,189.54,16.53,183.83,14.81,180.44,16.36Z" transform="translate(-4.64 -7.7)"/><path class="cls-2" d="M379.2,330.16s-201-116.58-201.87-117a11.35,11.35,0,0,0-11.51.13c-7.25,4-154.29,90.73-157.2,92.39S1.93,315,10.56,319.77c6.38,3.49,180.71,108.52,183,109.75s8.52,4.38,22.07-2.91C227.56,419.87,379.2,330.16,379.2,330.16Z" transform="translate(-4.64 -7.7)"/><path class="cls-3" d="M258,375.65c-1-.39,3.29,3.09,9.48,0s75.49-42,76.07-43,4.06-3.68-2.9-7.16-166.26-95.81-167-96.39a7,7,0,0,0-7.74,0c-3.68,2.32-69.29,42.77-72.19,44.52s-1.36,4.83,1.35,6S258,375.65,258,375.65Z" transform="translate(-4.64 -7.7)"/><path class="cls-3" d="M111.66,312.29c-1.36-.77-5-1.35-7.16,0s-29.23,17.23-31,18a2.9,2.9,0,0,0,0,5c2.13,1.36,58.06,33.1,59,33.68s5.61.77,9.1-1.35,27.87-16.07,29.22-17.23,1.75-3.48-1.93-5.81S111.66,312.29,111.66,312.29Z" transform="translate(-4.64 -7.7)"/></svg>