<svg id="Layer_1" data-name="Layer 1" xmlns="http://www.w3.org/2000/svg" viewBox="0 0 37.75 28.3"><defs><style>.cls-1{fill:#fff;}</style></defs><path class="cls-1" d="M310.31,434.65H284.69a6.07,6.07,0,0,1-6.07-6.06V412.41a6.07,6.07,0,0,1,6.07-6.06h25.62a6.07,6.07,0,0,1,6.07,6.06v16.18A6.07,6.07,0,0,1,310.31,434.65Zm-25.62-26.53a4.3,4.3,0,0,0-4.29,4.29v16.18a4.3,4.3,0,0,0,4.29,4.29h25.62a4.3,4.3,0,0,0,4.29-4.29V412.41a4.3,4.3,0,0,0-4.29-4.29Z" transform="translate(-278.62 -406.35)"/><path class="cls-1" d="M283.26,412.5l13.59,13.24c.85.83,2.14-.47,1.3-1.29l-13.6-13.25c-.84-.82-2.14.47-1.29,1.3Z" transform="translate(-278.62 -406.35)"/><path class="cls-1" d="M298.15,425.74l13.59-13.24c.85-.83-.45-2.12-1.29-1.3l-13.6,13.25c-.84.82.45,2.12,1.3,1.29Z" transform="translate(-278.62 -406.35)"/><path class="cls-1" d="M311.69,428.87l-9-8.58c-.86-.81-2.16.48-1.3,1.3l9,8.57c.85.82,2.15-.48,1.29-1.29Z" transform="translate(-278.62 -406.35)"/><path class="cls-1" d="M284.68,430.16l9.05-8.58c.86-.81-.44-2.1-1.29-1.29l-9.05,8.58c-.86.81.44,2.11,1.29,1.29Z" transform="translate(-278.62 -406.35)"/></svg>