<svg id="Layer_1" data-name="Layer 1" xmlns="http://www.w3.org/2000/svg" viewBox="0 0 1921.15 505.08"><defs><style>.cls-1{fill:#2c2b2f;}.cls-2{fill:#3d3c43;}.cls-3{fill:#313133;}</style></defs><rect class="cls-1" x="157.42" y="244.57" width="182.05" height="101.81" transform="translate(-272.77 370.24) rotate(-70.14)"/><path class="cls-2" d="M325.46,220.15l-88.13-31.83c-8.46-3.06-17.43.58-20.14,8.07l-57.5,159.2c-2.72,7.52,1.91,16,10.34,19.07l88.12,31.83c8.47,3.05,17.43-.58,20.14-8.06l57.5-159.2C338.5,231.74,333.88,223.19,325.46,220.15Zm-68.82-15.53,43.5,15.71c1.1.4,1.47,2.18.82,4s-2.13,2.94-3.18,2.56l-43.47-15.71c-1.1-.39-1.45-2.18-.8-4s2.06-3,3.16-2.55ZM218.91,377.16c-5.37-1.94-8.33-7.4-6.6-12.18s7.49-7.07,12.86-5.13,8.31,7.38,6.59,12.16-7.47,7.1-12.82,5.16Zm58.59-12.37-95.73-34.58,43.49-120.38L321,244.41Z" transform="translate(-158.91 -58.52)"/><path class="cls-3" d="M1037.19,422.42s-150-178.12-150.77-178.86-3-5.05-1-11,56.67-157,58.51-161.74c3.29-9.2,15.14-14.72,21.34-8,5.44,5.76,138.17,156.82,138.84,157.68,3.39,4.34,5,6.17,2.34,13.12C1103.43,241.48,1037.19,422.42,1037.19,422.42Z" transform="translate(-158.91 -58.52)"/><polygon class="cls-2" points="798.38 24.55 742 180.06 872.44 334.4 930.4 174.53 798.38 24.55"/><path class="cls-1" d="M957,60s18.56-1.31,19.33-1.38a6.27,6.27,0,0,1,5.64,2c2.16,2.47,137.6,157.38,140,160s3.83,4.78,2.28,9.06-70.48,195.56-70.68,196.11-1.67,8.56-14.93,10.54S840,471.48,838.63,471.81c-2.46.32-11.29,2.18-19.31-8.07s-131.6-161.89-133-164.45-1.22-4.25-.37-6.86,4.79-16.85,8.65-17.71,182.6-36.18,185.56-35a15.24,15.24,0,0,1,8.17,6.15c3,4.05,148.87,176.56,148.87,176.56s69.12-188.67,69.5-189.89,3.18-5.51-4.91-14.7S966.09,63.78,965.46,63.23,960.68,59.67,957,60Z" transform="translate(-158.91 -58.52)"/><path class="cls-2" d="M1036.87,422.72S887.64,244.62,887,243.93a11.33,11.33,0,0,0-10.86-3.8c-8.18,1.29-176,32.71-179.28,33.28s-9.46,6.48-3,13.9c4.81,5.46,132.91,163.62,134.64,165.55s6.52,7,21.74,4.79C863.74,455.38,1036.87,422.72,1036.87,422.72Z" transform="translate(-158.91 -58.52)"/><path class="cls-1" d="M907.43,424.18c-.81-.71,2,4,8.91,3.23s85.28-13.75,86.17-14.5,5.07-2.07-.29-7.72S878.57,258.46,878.07,257.66A7,7,0,0,0,870.8,255c-4.25.93-79.72,16.59-83,17.25s-2.92,4.08-.77,6.1S907.43,424.18,907.43,424.18Z" transform="translate(-158.91 -58.52)"/><path class="cls-1" d="M791.44,314.74c-1-1.19-4.24-3-6.73-2.44s-33.35,6.24-35.28,6.36a2.9,2.9,0,0,0-1.7,4.7c1.54,2,43.3,50.9,44,51.77s5,2.63,9,1.83,31.68-5.61,33.34-6.24,2.84-2.67.17-6.12S791.44,314.74,791.44,314.74Z" transform="translate(-158.91 -58.52)"/><rect class="cls-1" x="1758.08" y="264.4" width="357.04" height="141.4" transform="translate(848.43 2008.39) rotate(-71.6)"/><rect class="cls-1" x="1571.39" y="96.47" width="188.44" height="307.44" transform="translate(743.55 1693.16) rotate(-71.6)"/><rect class="cls-2" x="1969.3" y="153.37" width="19.83" height="99.17" transform="translate(1002.99 1958.4) rotate(-71.6)"/><path class="cls-2" d="M1474.34,306.76l141.18,47-9.38,28.2-37.64-12.52-6.26,18.82,94.09,31.3,6.26-18.82L1625,388.19l9.39-28.23L1784.89,410a9.91,9.91,0,0,0,12.54-6.28l65.73-197.6a9.91,9.91,0,0,0-6.28-12.52L1546.33,90.33a9.92,9.92,0,0,0-12.48,6.29l-65.73,197.59A9.91,9.91,0,0,0,1474.34,306.76Zm75.19-194.46,291.69,97-59.47,178.78-291.69-97Z" transform="translate(-158.91 -58.52)"/><path class="cls-2" d="M1963.56,312.73a29.75,29.75,0,1,0,18.84,37.61h0A29.78,29.78,0,0,0,1963.56,312.73ZM1951,350.36a9.92,9.92,0,1,1,12.54-6.28A9.92,9.92,0,0,1,1951,350.36Z" transform="translate(-158.91 -58.52)"/><path class="cls-2" d="M1629.76,162.94l-75.23,37.67a9.92,9.92,0,0,0,8.25,18l.62-.32,75.24-37.67a9.92,9.92,0,0,0-8.89-17.74h0Z" transform="translate(-158.91 -58.52)"/><path class="cls-2" d="M1963.74,532.27l115.82-348.16a9.93,9.93,0,0,0-6.28-12.54h0l-150.58-50.09a9.92,9.92,0,0,0-12.54,6.27L1794.33,475.91,1436.79,357l-6.26,18.82L1995.12,563.6l6.26-18.82ZM1944.92,526,1813.2,482.19l112.67-338.72,131.73,43.81Z" transform="translate(-158.91 -58.52)"/></svg>