<svg id="Layer_1" data-name="Layer 1" xmlns="http://www.w3.org/2000/svg" viewBox="0 0 1996.06 603.37"><defs><style>.cls-1{fill:#2c2b2f;}.cls-2{fill:#3d3c43;}.cls-3{fill:#313133;}</style></defs><rect class="cls-1" x="157.99" y="287.73" width="182.05" height="101.81" transform="translate(-314.25 273.76) rotate(-51.95)"/><path class="cls-2" d="M345.69,291.13l-73.78-57.76c-7.09-5.55-16.75-4.89-21.65,1.38L145.92,368c-4.93,6.3-3.18,15.82,3.87,21.34l73.79,57.76c7.08,5.54,16.73,4.89,21.64-1.37l104.34-133.3C354.46,306.21,352.74,296.64,345.69,291.13Zm-60.52-36.24,36.42,28.5c.92.72.71,2.53-.47,4s-2.94,2.13-3.82,1.44l-36.39-28.49c-.93-.72-.7-2.53.48-4s2.88-2.16,3.8-1.44ZM195.45,407c-4.49-3.52-5.6-9.64-2.47-13.64s9.32-4.38,13.82-.86,5.59,9.61,2.46,13.61-9.3,4.41-13.78.9ZM255,413.56l-80.14-62.73L253.72,250l80.17,62.76Z" transform="translate(-143.12 -52.24)"/><path class="cls-3" d="M979.31,510.28s-84.63-217-85.1-217.91-1.25-5.76,2.61-10.73,104.24-130.39,107.51-134.26c6.07-7.65,19.07-9.06,22.78-.7,3.29,7.2,80.26,193,80.63,194,1.8,5.19,2.76,7.45-2,13.16C1100.31,360.33,979.31,510.28,979.31,510.28Z" transform="translate(-143.12 -52.24)"/><polygon class="cls-2" points="869.89 111.04 766.42 240.09 840.16 428.23 946.55 295.56 869.89 111.04"/><path class="cls-1" d="M1020.15,141.3l18.74,4.93a6.27,6.27,0,0,1,4.68,3.75c1.25,3,79.55,193.32,81,196.52s2.08,5.76-.77,9.31L993.66,518.68c-.36.45-4.34,7.57-17.54,5.17s-199.3-30.67-200.69-30.8c-2.44-.49-11.39-1.57-15.69-13.86s-72.41-195.66-72.89-198.53.22-4.41,1.87-6.61,10-14.4,13.89-14,184.51,24.59,186.94,26.67a15.17,15.17,0,0,1,5.75,8.46c1.5,4.78,84,215.1,84,215.1s126.23-156.33,127-157.36,4.78-4.2.09-15.49-78.85-189.6-79.27-190.32S1023.76,142.21,1020.15,141.3Z" transform="translate(-143.12 -52.24)"/><path class="cls-2" d="M978.91,510.46S895,293.77,894.61,292.9a11.34,11.34,0,0,0-9.06-7.1c-8.16-1.42-177.13-25.74-180.44-26.26s-11.05,3.08-7.3,12.2c2.79,6.72,73.1,197.71,74.11,200.11s3.91,8.74,19,11.53C804.49,485.59,978.91,510.46,978.91,510.46Z" transform="translate(-143.12 -52.24)"/><path class="cls-1" d="M855.9,470.13c-.54-.93.63,4.47,7.39,5.93s85.17,14.46,86.25,14,5.47-.33,2.22-7.4S882,303.94,881.77,303a7,7,0,0,0-6-4.84c-4.32-.49-80.81-10-84.17-10.43s-4.08,2.92-2.7,5.53S855.9,470.13,855.9,470.13Z" transform="translate(-143.12 -52.24)"/><path class="cls-1" d="M781.36,329.15c-.58-1.45-3.05-4.18-5.58-4.48s-33.58-4.84-35.45-5.35a2.9,2.9,0,0,0-3.28,2.46,2.83,2.83,0,0,0,.15,1.44c.82,2.4,24.6,62.15,25,63.19s3.89,4.11,7.94,4.64,31.8,4.9,33.57,4.84,3.55-1.62,2.13-5.74S781.36,329.15,781.36,329.15Z" transform="translate(-143.12 -52.24)"/><rect class="cls-1" x="1771.4" y="350.45" width="357.04" height="141.4" transform="translate(251.03 1617.56) rotate(-50.94)"/><rect class="cls-1" x="1632.1" y="92.36" width="188.44" height="307.44" transform="translate(304.26 1379.2) rotate(-50.94)"/><rect class="cls-2" x="2026.51" y="262.96" width="19.83" height="99.17" transform="translate(367.35 1644.56) rotate(-50.94)"/><path class="cls-2" d="M1527.39,231.52l115.54,93.77-18.73,23.07-30.8-25-12.5,15.4,77,62.48,12.5-15.39-30.8-25,18.75-23.1,123.19,100a9.92,9.92,0,0,0,14-1.45l131.23-161.7a9.91,9.91,0,0,0-1.46-13.93L1671.13,54.42a9.93,9.93,0,0,0-13.9,1.47L1526,217.59A9.92,9.92,0,0,0,1527.39,231.52Zm139-155.42,238.69,193.72L1786.33,416.11,1547.64,222.4Z" transform="translate(-143.12 -52.24)"/><path class="cls-2" d="M1983.05,409.73a29.75,29.75,0,1,0,4.35,41.85h0A29.8,29.8,0,0,0,1983.05,409.73Zm-25,30.8a9.92,9.92,0,1,1,14-1.45A9.92,9.92,0,0,1,1958.05,440.53Z" transform="translate(-143.12 -52.24)"/><path class="cls-2" d="M1723.57,151.79l-83.69,8.71a9.91,9.91,0,0,0,1.36,19.78c.23,0,.46,0,.69-.07l83.69-8.7a9.92,9.92,0,0,0-2-19.74h0Z" transform="translate(-143.12 -52.24)"/><path class="cls-2" d="M1905.75,615.21,2137,330.32a9.92,9.92,0,0,0-1.45-13.95h0l-123.22-100a9.92,9.92,0,0,0-14,1.45L1767.12,502.7,1474.55,265.26l-12.5,15.39,462,375,12.49-15.39Zm-15.4-12.5-107.79-87.48,225-277.17,107.79,87.48Z" transform="translate(-143.12 -52.24)"/></svg>