<svg id="Layer_1" data-name="Layer 1" xmlns="http://www.w3.org/2000/svg" viewBox="0 0 126.1 198.11"><defs><style>.cls-1{fill:#2b2a2f;}.cls-2{fill:#3c3b42;}</style></defs><rect class="cls-1" x="12.15" y="5.98" width="101.81" height="182.05"/><path class="cls-2" d="M125.35,12.44H31.65c-9,0-16.2,6.47-16.2,14.43V196.14c0,8,7.24,14.42,16.2,14.42h93.7c9,0,16.2-6.46,16.2-14.42V26.87C141.55,18.91,134.3,12.44,125.35,12.44Zm-70,8.77h46.25c1.17,0,2.12,1.55,2.12,3.47s-1,3.48-2.12,3.48H55.38c-1.17,0-2.11-1.56-2.11-3.48S54.21,21.21,55.38,21.21Zm23.13,175.1c-5.71,0-10.35-4.13-10.35-9.21s4.64-9.2,10.35-9.2,10.33,4.12,10.33,9.2S84.2,196.31,78.51,196.31Zm50.9-31.54H27.6v-128H129.41Z" transform="translate(-15.45 -12.44)"/></svg>