<svg id="Layer_1" data-name="Layer 1" xmlns="http://www.w3.org/2000/svg" viewBox="0 0 25.04 35.15"><defs><style>.cls-1{fill:#fff;}</style></defs><path class="cls-1" d="M309.45,406.74h-3.1a.57.57,0,0,0,0,1.13h2.53v29.07H286.12V407.87h2.53a.57.57,0,0,0,0-1.13h-3.1a.57.57,0,0,0-.57.56v30.21a.57.57,0,0,0,.57.56h23.9a.57.57,0,0,0,.57-.56V407.3A.57.57,0,0,0,309.45,406.74Z" transform="translate(-284.98 -402.93)"/><path class="cls-1" d="M290.91,409.61h9.44a.57.57,0,1,0,0-1.13h-8.87v-1.92a.43.43,0,0,1,.43-.43h3.52a.57.57,0,0,0,.57-.57,1.5,1.5,0,1,1,3,0,.57.57,0,0,0,.57.57h3.52a.43.43,0,0,1,.43.43v1.92h-.9a.57.57,0,1,0,0,1.13h1.47a.56.56,0,0,0,.56-.57v-2.48a1.57,1.57,0,0,0-1.56-1.57h-3a2.63,2.63,0,0,0-5.14,0h-3a1.57,1.57,0,0,0-1.56,1.57V409A.56.56,0,0,0,290.91,409.61Z" transform="translate(-284.98 -402.93)"/><path class="cls-1" d="M290.91,434.56h2.73a.57.57,0,0,0,.56-.57v-2.72a.57.57,0,0,0-.56-.57h-2.73a.57.57,0,0,0-.56.57V434A.57.57,0,0,0,290.91,434.56Zm.57-2.72h1.59v1.58h-1.59Z" transform="translate(-284.98 -402.93)"/><path class="cls-1" d="M304.09,432.06H295.9a.57.57,0,0,0,0,1.14h8.19a.57.57,0,0,0,0-1.14Z" transform="translate(-284.98 -402.93)"/><path class="cls-1" d="M290.91,428.32h2.73a.56.56,0,0,0,.56-.57V425a.56.56,0,0,0-.56-.56h-2.73a.56.56,0,0,0-.56.56v2.72A.56.56,0,0,0,290.91,428.32Zm.57-2.72h1.59v1.59h-1.59Z" transform="translate(-284.98 -402.93)"/><path class="cls-1" d="M304.09,425.83H295.9a.57.57,0,0,0,0,1.13h8.19a.57.57,0,0,0,0-1.13Z" transform="translate(-284.98 -402.93)"/><path class="cls-1" d="M290.91,422.08h2.73a.56.56,0,0,0,.56-.56V418.8a.56.56,0,0,0-.56-.57h-2.73a.56.56,0,0,0-.56.57v2.72A.56.56,0,0,0,290.91,422.08Zm.57-2.72h1.59V421h-1.59Z" transform="translate(-284.98 -402.93)"/><path class="cls-1" d="M304.09,419.59H295.9a.57.57,0,0,0,0,1.13h8.19a.57.57,0,0,0,0-1.13Z" transform="translate(-284.98 -402.93)"/><path class="cls-1" d="M290.91,415.85h2.73a.57.57,0,0,0,.56-.57v-2.72a.57.57,0,0,0-.56-.57h-2.73a.57.57,0,0,0-.56.57v2.72A.57.57,0,0,0,290.91,415.85Zm.57-2.72h1.59v1.58h-1.59Z" transform="translate(-284.98 -402.93)"/><path class="cls-1" d="M304.09,413.35H295.9a.57.57,0,0,0,0,1.14h8.19a.57.57,0,0,0,0-1.14Z" transform="translate(-284.98 -402.93)"/></svg>